<?xml version="1.0" encoding="utf-8"?>
<!-- Generator: Adobe Illustrator 22.0.1, SVG Export Plug-In . SVG Version: 6.00 Build 0)  -->
<svg version="1.1" id="组_32_拷贝_2" xmlns="http://www.w3.org/2000/svg" xmlns:xlink="http://www.w3.org/1999/xlink" x="0px"
	 y="0px" viewBox="0 0 19.8 19.8" style="enable-background:new 0 0 19.8 19.8;" xml:space="preserve">
<style type="text/css">
	.st0{fill:#477FE3;}
</style>
<g id="圆角矩形_2">
	<path class="st0" d="M19.2,17.3H0.6V4.3h18.6V17.3z M1.6,16.3h16.6V5.3H1.6V16.3z"/>
</g>
<g id="矩形_26_拷贝_3">
	<path class="st0" d="M4.4,9.2h2.2v1.1H4.4V9.2z M7.7,9.2h2.2v1.1H7.7V9.2z M11,9.2h4.4v1.1H11V9.2z"/>
</g>
<g id="矩形_26_拷贝_4">
	<path class="st0" d="M4.4,12.5h2.2v1.1H4.4V12.5z M7.7,12.5h2.2v1.1H7.7V12.5z M11,12.5h4.4v1.1H11V12.5z"/>
</g>
<g id="圆角矩形_3">
	<path class="st0" d="M5.5,2.5h1.1v4.4H5.5V2.5z"/>
</g>
<g id="圆角矩形_3_拷贝_2">
	<path class="st0" d="M13.2,2.5h1.1v4.4h-1.1V2.5z"/>
</g>
</svg>
